<?xml version="1.0" encoding="utf-8"?>
<!-- Generator: Adobe Illustrator 25.2.0, SVG Export Plug-In . SVG Version: 6.00 Build 0)  -->
<svg version="1.1" id="Layer_1" xmlns="http://www.w3.org/2000/svg" xmlns:xlink="http://www.w3.org/1999/xlink" x="0px" y="0px"
	 viewBox="0 0 172.9 45" style="enable-background:new 0 0 172.9 45;" xml:space="preserve">
<style type="text/css">
	.st0{fill:url(#Path_660_1_);}
	.st1{fill:#231F20;}
</style>
<g id="Group_1108" transform="translate(-13420.469 1279.073)">
	<g id="Group_1107" transform="translate(74.572 87.897)">
		
			<linearGradient id="Path_660_1_" gradientUnits="userSpaceOnUse" x1="13041.4727" y1="-1044.1757" x2="13042.5625" y2="-1045.2227" gradientTransform="matrix(65.9612 0 0 -44.9879 -846892.125 -48346.0547)">
			<stop  offset="0" style="stop-color:#FFA500"/>
			<stop  offset="1" style="stop-color:#F94C66"/>
		</linearGradient>
		<path id="Path_660" class="st0" d="M13363.5-1337.5h2.5v6h-2.5c-4.7,0.2-9.3-1.7-12.6-5c-6.6-7.2-6.6-18.2,0-25.4
			c3.3-3.4,7.9-5.2,12.6-5h20.3v1.5h-2v7h-6v-2.6h-12.4c-3.1-0.1-6.2,1-8.4,3.3c-4.3,4.9-4.3,12.1,0,17
			C13357.3-1338.6,13360.4-1337.4,13363.5-1337.5z M13385.9-1351.5C13385.9-1351.5,13385.9-1351.5,13385.9-1351.5
			c-0.5-0.4-1-0.6-1.6-0.6h-8.4v4.4h6v-3.8H13385.9z M13372.4-1337.5v0.6h9.5v-4.4h-6v3.8L13372.4-1337.5z M13406.9-1352.4
			c-3.3-3.4-7.9-5.2-12.6-5h-5.8c2.3,1.2,3.8,3.4,4.2,6h1.5c3.1-0.1,6.2,1,8.4,3.3c4.3,4.9,4.3,12.1,0,17c-2.2,2.2-5.3,3.4-8.4,3.3
			h-12.4v-2.6h-6v7h-2v1.5h20.3c4.7,0.2,9.3-1.7,12.6-5C13413.5-1334.2,13413.5-1345.2,13406.9-1352.4L13406.9-1352.4z
			 M13369.1-1344.5c-1.4,1.4-2.2,3.4-2.2,5.4v7.6h25.3v-5.9h-1.1v1.6h-19.8v-3.2c0-0.9,0.3-1.7,0.9-2.3c0.6-0.6,1.4-0.9,2.3-0.9h9.7
			c2,0.1,4-0.7,5.4-2.2c2.9-3,2.9-7.8,0-10.8c-1.4-1.4-3.4-2.2-5.4-2.2h-17.5v5.9h1.1v-1.6h16.4c0.9,0,1.7,0.3,2.3,0.9
			c1.1,1.3,1.1,3.3,0,4.6c-0.6,0.6-1.4,0.9-2.3,0.9h-9.7C13372.5-1346.7,13370.6-1345.9,13369.1-1344.5L13369.1-1344.5z"/>
		<path id="Path_661" class="st1" d="M13431.5-1351.3c0.1,1.7-0.6,3.4-1.8,4.6c-1.2,1.2-2.8,1.9-4.5,1.8h-7.1v-12.6h7.1
			c1.7-0.1,3.3,0.5,4.6,1.7C13431-1354.6,13431.6-1352.9,13431.5-1351.3z M13429.3-1351.1c0.1-2.2-1.6-4.1-3.8-4.1
			c-0.1,0-0.2,0-0.3,0h-4.9v8.2h4.9c1.1,0,2.2-0.4,3-1.1C13429-1348.9,13429.4-1350,13429.3-1351.1L13429.3-1351.1z"/>
		<path id="Path_662" class="st1" d="M13449.5-1344.8l-2.8,0l-2.1-3.5h-6l1.3-2.2h3.3l-2.2-3.6l-5.7,9.3h-2.8l6.8-11.4
			c0.2-0.3,0.4-0.6,0.7-0.8c0.3-0.2,0.6-0.4,1-0.4c0.4,0,0.7,0.2,1,0.4c0.3,0.2,0.5,0.5,0.7,0.8L13449.5-1344.8z"/>
		<path id="Path_663" class="st1" d="M13459.8-1357.4l-6.2,8.4v4.2h-2.2v-4.2l-6.4-8.4h2.8l4.7,6.2l4.4-6.2L13459.8-1357.4z"/>
		<path id="Path_664" class="st1" d="M13474.1-1353.9c0,1-0.4,2-1.2,2.6c-0.8,0.6-1.8,0.9-2.7,0.9h-4.5c-0.5,0-1.1,0.1-1.5,0.4
			c-0.5,0.2-0.8,0.7-0.8,1.3v1.8h10.5v2.2h-12.5v-4c0-1.1,0.5-2.1,1.3-2.8c0.8-0.7,1.9-1,3-1h4.5c0.4,0,0.8-0.1,1.1-0.3
			c0.3-0.2,0.5-0.6,0.4-0.9c0-0.4-0.2-0.7-0.4-0.9c-0.3-0.2-0.7-0.4-1.1-0.3h-8.6v-2.2h8.6c1,0,2,0.3,2.7,0.9
			C13473.7-1355.9,13474.1-1354.9,13474.1-1353.9z"/>
		<path id="Path_665" class="st1" d="M13490.5-1351.3c0.1,1.7-0.6,3.4-1.8,4.6c-1.2,1.2-2.8,1.9-4.5,1.8h-7.1v-12.6h7.1
			c1.7-0.1,3.3,0.5,4.6,1.7C13489.9-1354.6,13490.5-1352.9,13490.5-1351.3z M13488.3-1351.1c0.1-2.2-1.6-4.1-3.8-4.1
			c-0.1,0-0.2,0-0.3,0h-4.9v8.2h4.9c1.1,0,2.2-0.4,3-1.1C13487.9-1348.9,13488.3-1350,13488.3-1351.1L13488.3-1351.1z"/>
		<path id="Path_666" class="st1" d="M13508.4-1344.8l-2.8,0l-2.1-3.5h-6l1.3-2.2h3.3l-2.2-3.6l-5.7,9.3h-2.8l6.8-11.4
			c0.2-0.3,0.4-0.6,0.7-0.8c0.3-0.2,0.6-0.4,1-0.4c0.4,0,0.7,0.2,1,0.4c0.3,0.2,0.5,0.5,0.7,0.8L13508.4-1344.8z"/>
		<path id="Path_667" class="st1" d="M13518.8-1357.4l-6.2,8.4v4.2h-2.2v-4.2l-6.4-8.4h2.8l4.7,6.2l4.4-6.2H13518.8z"/>
		<path id="Path_668" class="st1" d="M13418.1-1340.9h1.3l2,7.9l2.2-7.9h1.4l2.1,7.9l2-7.9h1.3l-2.7,9.3h-1.4l-2.2-7.5l-2.2,7.5
			l-1.4,0L13418.1-1340.9z"/>
		<path id="Path_669" class="st1" d="M13441.2-1335.8h-4.8v4.2h-1.2v-9.3h1.2v4.1h4.8v-4.1h1.2v9.3h-1.2V-1335.8z"/>
		<path id="Path_670" class="st1" d="M13452.1-1331.5c-2.6,0-4.8-2.1-4.8-4.7c0-2.6,2.1-4.8,4.7-4.8c2.6,0,4.8,2.1,4.8,4.7
			c0,0,0,0.1,0,0.1c0.1,2.5-1.9,4.7-4.4,4.8C13452.2-1331.5,13452.1-1331.5,13452.1-1331.5z M13452.1-1332.6c2,0.2,3.8-1.4,4-3.4
			c0.2-2-1.4-3.8-3.4-4c-2-0.2-3.8,1.4-4,3.4c0,0.1,0,0.2,0,0.3c-0.2,1.9,1.2,3.5,3.1,3.7
			C13451.8-1332.6,13452-1332.6,13452.1-1332.6L13452.1-1332.6z"/>
		<path id="Path_671" class="st1" d="M13462.9-1340.9v8.3h3.3v1h-4.5v-9.3H13462.9z"/>
		<path id="Path_672" class="st1" d="M13475.8-1340h-3.8v3.1h3.4v1h-3.4v3.2h3.8v1h-5v-9.3h5L13475.8-1340z"/>
		<path id="Path_673" class="st1" d="M13484-1331.5c-1.9,0-3.2-1-3.2-2.6h1.3c0.1,1,0.9,1.6,1.9,1.6c0,0,0,0,0,0
			c1.2,0,1.9-0.7,1.9-1.6c0-2.5-5-0.9-5-4.4c0-1.5,1.2-2.6,3.1-2.6c1.8,0,2.9,1,3.1,2.4h-1.3c-0.2-0.8-0.9-1.4-1.8-1.4
			c-1,0-1.8,0.5-1.8,1.5c0,2.4,5,0.9,5,4.4C13487.1-1332.8,13486-1331.5,13484-1331.5z"/>
		<path id="Path_674" class="st1" d="M13497.8-1333.7h-4.1l-0.8,2.1h-1.3l3.4-9.3h1.4l3.4,9.3h-1.3L13497.8-1333.7z M13495.7-1339.4
			l-1.7,4.7h3.4L13495.7-1339.4z"/>
		<path id="Path_675" class="st1" d="M13505.8-1340.9v8.3h3.3v1h-4.5v-9.3H13505.8z"/>
		<path id="Path_676" class="st1" d="M13518.8-1340h-3.8v3.1h3.4v1h-3.4v3.2h3.8v1h-5v-9.3h5V-1340z"/>
	</g>
</g>
</svg>
